<?xml version="1.0" encoding="iso-8859-1"?>
<!-- Generator: Adobe Illustrator 19.0.0, SVG Export Plug-In . SVG Version: 6.00 Build 0)  -->
<svg version="1.1" id="Capa_1" xmlns="http://www.w3.org/2000/svg" xmlns:xlink="http://www.w3.org/1999/xlink" x="0px" y="0px"
	 viewBox="0 0 468.293 468.293" style="enable-background:new 0 0 468.293 468.293;" xml:space="preserve">
<path style="fill:#F7BE56;" d="M468.293,313.988v12.578c0,2.646-2.137,4.783-4.783,4.783h-7.001v-22.145h7.001
	C466.155,309.205,468.293,311.342,468.293,313.988z"/>
<polygon style="fill:#3A556A;" points="313.286,281.144 313.286,326.593 39.858,326.593 39.858,323.032 32.144,323.032 
	32.144,300.48 39.858,300.48 39.858,281.144 "/>
<path style="fill:#64798A;" d="M461.169,300.473v30.897c0,3.664-2.97,6.634-6.634,6.634H302.086v-37.532H461.169z"/>
<path style="fill:#E56353;" d="M33.853,300.48v22.552h-5.772c-1.736,0-3.143-1.407-3.143-3.143v-16.266
	c0-1.736,1.407-3.143,3.143-3.143H33.853z"/>
<rect y="110.151" style="fill:#F7BE56;" width="298.69" height="184.707"/>
<path style="fill:#E56353;" d="M461.169,268.259v33.578H302.086v-144.51h71.53c5.106,0,10.008,2.112,13.413,5.917
	c11.104,12.408,20.684,33.493,28.69,63.712l37.73,26.46C458.288,256.81,461.169,262.349,461.169,268.259z"/>
<path style="fill:#27A2DB;" d="M401.635,233.979h-66.658v-59.534h7.124C374.992,174.445,401.635,201.108,401.635,233.979z"/>
<g>
	<path style="fill:#2F4859;" d="M353.272,250.479c-2.541,1.426-5.207,2.17-7.997,2.17c-2.665,0-5.455-0.682-8.244-2.108l1.426-5.083
		c4.215,2.232,8.554,2.046,12.956,0L353.272,250.479z"/>
	<path style="fill:#2F4859;" d="M365.024,319.639c0,21.278,17.225,38.503,38.507,38.503c21.274,0,38.499-17.225,38.499-38.503
		s-17.225-38.501-38.499-38.501C382.249,281.138,365.024,298.361,365.024,319.639z"/>
</g>
<path style="fill:#64798A;" d="M384.361,319.529c0,10.63,8.64,19.267,19.27,19.267c10.408,0,19.043-8.638,19.043-19.267
	s-8.635-19.046-19.043-19.046C393.001,300.483,384.361,308.899,384.361,319.529z"/>
<path style="fill:#EBF0F3;" d="M384.361,319.524c0,1.511,0.138,2.954,0.548,4.327c2.611-0.549,5.29,0.206,6.732,2.679
	c1.374,2.405,0.756,5.221-1.099,7.145c2.061,1.923,4.533,3.366,7.282,4.259c0.755-2.542,2.885-4.534,5.702-4.534
	c2.816,0,4.944,1.992,5.701,4.603c2.749-0.893,5.221-2.336,7.282-4.328c-1.855-1.924-2.474-4.672-1.099-7.145
	c1.442-2.473,4.121-3.229,6.732-2.679c0.411-1.374,0.548-2.816,0.548-4.327c0-1.443-0.137-2.817-0.481-4.122
	c-2.61,0.618-5.357-0.206-6.799-2.61c-1.444-2.473-0.756-5.358,1.099-7.282c-2.061-1.855-4.533-3.297-7.282-4.19
	c-0.823,2.611-2.885,4.603-5.701,4.603c-2.818,0-4.879-1.992-5.702-4.534c-2.818,0.893-5.29,2.335-7.351,4.19
	c1.924,1.992,2.541,4.809,1.167,7.213c-1.374,2.336-4.19,3.16-6.801,2.61C384.499,316.707,384.361,318.081,384.361,319.524z"/>
<path style="fill:#2F4859;" d="M49.545,319.639c0,21.278,17.225,38.503,38.507,38.503c21.274,0,38.499-17.225,38.499-38.503
	s-17.225-38.501-38.499-38.501C66.77,281.138,49.545,298.361,49.545,319.639z"/>
<path style="fill:#64798A;" d="M68.882,319.529c0,10.63,8.64,19.267,19.27,19.267c10.408,0,19.043-8.638,19.043-19.267
	s-8.635-19.046-19.043-19.046C77.522,300.483,68.882,308.899,68.882,319.529z"/>
<path style="fill:#EBF0F3;" d="M68.883,319.524c0,1.511,0.138,2.954,0.548,4.327c2.611-0.549,5.29,0.206,6.732,2.679
	c1.374,2.405,0.756,5.221-1.099,7.145c2.061,1.923,4.533,3.366,7.282,4.259c0.755-2.542,2.885-4.534,5.702-4.534
	c2.816,0,4.944,1.992,5.701,4.603c2.749-0.893,5.221-2.336,7.282-4.328c-1.855-1.924-2.474-4.672-1.099-7.145
	c1.442-2.473,4.121-3.229,6.732-2.679c0.411-1.374,0.548-2.816,0.548-4.327c0-1.443-0.138-2.817-0.481-4.122
	c-2.61,0.618-5.357-0.206-6.799-2.61c-1.444-2.473-0.756-5.358,1.099-7.282c-2.061-1.855-4.533-3.297-7.282-4.19
	c-0.823,2.611-2.885,4.603-5.701,4.603c-2.818,0-4.879-1.992-5.702-4.534c-2.818,0.893-5.29,2.335-7.351,4.19
	c1.924,1.992,2.541,4.809,1.167,7.213c-1.374,2.336-4.19,3.16-6.801,2.61C69.02,316.707,68.883,318.081,68.883,319.524z"/>
<path style="fill:#64798A;" d="M263.848,316.905v11.54c0,7.775-6.31,14.085-14.085,14.085h-77.689
	c-7.775,0-14.064-6.31-14.064-14.085v-11.54c0-7.775,6.289-14.084,14.064-14.084h77.689
	C257.538,302.821,263.848,309.13,263.848,316.905z"/>
<rect x="183.958" y="302.819" style="fill:#D5D6DB;" width="53.935" height="39.711"/>
<g>
	<rect x="308.611" y="305.211" style="fill:#F7BE56;" width="41.216" height="6.244"/>
	<rect x="308.611" y="312.454" style="fill:#F7BE56;" width="41.216" height="6.244"/>
	<rect x="308.611" y="319.765" style="fill:#F7BE56;" width="41.216" height="6.244"/>
	<rect x="308.611" y="327.052" style="fill:#F7BE56;" width="41.216" height="6.244"/>
</g>
<g>
	<polygon style="fill:#FCD462;" points="12.563,141.059 12.563,128.961 286.124,128.961 	"/>
	<polygon style="fill:#FCD462;" points="286.124,263.986 286.124,276.083 12.563,276.083 	"/>
</g>
<g>
</g>
<g>
</g>
<g>
</g>
<g>
</g>
<g>
</g>
<g>
</g>
<g>
</g>
<g>
</g>
<g>
</g>
<g>
</g>
<g>
</g>
<g>
</g>
<g>
</g>
<g>
</g>
<g>
</g>
</svg>
